<?xml version="1.0" encoding="UTF-8" standalone="no"?> <svg id="Layer_1" data-name="Layer 1" xmlns="http://www.w3.org/2000/svg" viewBox="0 0 48 48"><title>Reforestation</title><path d="M45.612,31.88a3.651,3.651,0,0,0-4.224-1.89l-8.311,2.27a9.662,9.662,0,0,1-1.617.3,5.363,5.363,0,0,0,1.585-3.662,2.132,2.132,0,0,0-2.133-2.164h0l-11.947.027a11.705,11.705,0,0,0-3.774.634L12,28.482V41.67c0,.01,0,.019,0,.029l5.808,1.292a11.723,11.723,0,0,0,2.545.28h7.129a11.792,11.792,0,0,0,4.962-1.1l11.452-5.348a3.653,3.653,0,0,0,1.719-4.941Z"/><rect x="2" y="26" width="8" height="18" rx="2.329"/><path d="M27,17.292c.075,0,.151,0,.226,0A13.037,13.037,0,0,0,35.4,14.255a10.31,10.31,0,0,0,3.814-7.2,8.933,8.933,0,0,0-.111-2.07,1,1,0,0,0-.824-.817A12.69,12.69,0,0,0,36.009,4a13.037,13.037,0,0,0-8.177,3.035A11.172,11.172,0,0,0,25,10.6a11.155,11.155,0,0,0-2.831-3.564A13.035,13.035,0,0,0,13.992,4a12.783,12.783,0,0,0-2.274.162,1,1,0,0,0-.824.817,8.933,8.933,0,0,0-.111,2.07,10.314,10.314,0,0,0,3.814,7.2,13.037,13.037,0,0,0,8.177,3.035c.076,0,.151,0,.226,0q.5,0,1-.039v2.79a14.844,14.844,0,0,0-7.884,2.91,15.033,15.033,0,0,0-3.064,3.054l1.484-.509a13.712,13.712,0,0,1,4.419-.742L30.9,24.729a4.133,4.133,0,0,1,4.144,4.194q-.006.377-.048.739l3.6-.982A14.945,14.945,0,0,0,26,20.041V17.253C26.332,17.279,26.666,17.292,27,17.292Z"/></svg>