<?xml version="1.0" encoding="utf-8"?>
<!-- Generator: Adobe Illustrator 23.0.2, SVG Export Plug-In . SVG Version: 6.00 Build 0)  -->
<svg version="1.1" id="Layer_1" xmlns="http://www.w3.org/2000/svg" xmlns:xlink="http://www.w3.org/1999/xlink" x="0px" y="0px"
	 viewBox="0 0 444.9995 237.1831" enable-background="new 0 0 444.9995 237.1831" xml:space="preserve">
<g>
	<path d="M69.8345,50.7246c-0.168-0.0107-0.335-0.0254-0.5059-0.0254h-5.1074l-9.3321,15.5372l-3.0332-9.1055l3.5274-6.4317H44.6372
		l3.5293,6.4317l-3.0352,9.1055l-9.332-15.5372h-5.1055c-0.1552,0-0.3076,0.0142-0.4604,0.0235
		c-1.8145,0.0361-4.7656,0.4399-8.1192,2.1318C16.7353,55.52,10.9365,61.356,6.8784,71.6944
		C2.7724,82.0738,0.0141,97.0816,0,119.7393c0.0019,5.8559,0.1889,12.2246,0.5962,19.1587c0.248,4.251,3.7768,7.5312,7.9809,7.5317
		c0.1573,0,0.3145-0.0044,0.4732-0.0137c4.4101-0.2592,7.7754-4.0439,7.5185-8.456c-0.3911-6.6484-0.5678-12.7061-0.5678-18.2207
		c-0.0347-24.2149,3.4956-37.8179,6.9643-44.9175v149.9981c0,6.83,5.5371,12.3632,12.3633,12.3632
		c6.8281,0,12.3652-5.5332,12.3652-12.3632v-90.2715h4.6348v90.2715c0,6.83,5.5371,12.3632,12.3633,12.3632
		c6.8281,0,12.3652-5.5332,12.3652-12.3632V74.8658c0.5918,1.2153,1.1895,2.6093,1.7783,4.2353
		c2.8184,7.812,5.1895,20.6309,5.1807,40.6377c0,5.5161-0.1758,11.5728-0.5635,18.2246c-0.2588,4.4116,3.1104,8.1953,7.5215,8.4526
		c0.1592,0.0093,0.3164,0.0137,0.4727,0.0137c4.205,0,7.7304-3.2827,7.9804-7.5356c0.4014-6.9317,0.5879-13.2993,0.5899-19.1553
		c-0.041-30.1816-4.8614-46.8853-11.4356-56.9292c-3.2822-4.9854-7.1269-8.1831-10.6787-9.9546
		C74.5805,51.1768,71.6499,50.7657,69.8345,50.7246z M50.0102,74.7969c1.9336,0,3.5,1.5664,3.5,3.5s-1.5664,3.5-3.5,3.5
		c-1.9336,0-3.5-1.5664-3.5-3.5S48.0766,74.7969,50.0102,74.7969z M50.0102,92.7129c1.9336,0,3.5,1.5664,3.5,3.5
		c0,1.9331-1.5664,3.4995-3.5,3.4995c-1.9336,0-3.5-1.5664-3.5-3.4995C46.5102,94.2793,48.0766,92.7129,50.0102,92.7129z
		 M50.0102,117.6284c-1.9336,0-3.5-1.5664-3.5-3.5c0-1.9316,1.5664-3.5,3.5-3.5c1.9336,0,3.5,1.5684,3.5,3.5
		C53.5102,116.062,51.9438,117.6284,50.0102,117.6284z"/>
	<circle cx="50.0102" cy="22.5" r="22.5"/>
	<path d="M435.9565,146.416c0.1582,0.0093,0.3164,0.0137,0.4727,0.0137c4.2051,0,7.7314-3.2827,7.9795-7.5347
		c0.4033-6.934,0.5888-13.3002,0.5908-19.1547c-0.041-30.1817-4.8613-46.8858-11.4346-56.9307
		c-3.2851-4.9868-7.1279-8.1841-10.6797-9.9561c-3.3271-1.6767-6.2578-2.0893-8.0732-2.1289
		c-0.166-0.0107-0.332-0.0254-0.501-0.0254h-5.1074l-9.332,15.5372l-3.0332-9.1055l3.5273-6.4317h-10.7461l3.5293,6.4317
		l-3.0352,9.1055l-9.332-15.5372h-5.1055c-0.163,0-0.3232,0.0147-0.4834,0.0245c-1.8164,0.0376-4.7568,0.4463-8.0966,2.1294
		c-5.3799,2.6684-11.1787,8.5034-15.2364,18.8418c-4.1064,10.3789-6.8652,25.3862-6.8789,48.0454
		c0,5.8564,0.1895,12.2226,0.5967,19.1572c0.25,4.2515,3.7744,7.5312,7.9785,7.5312c0.1582,0.0005,0.3174-0.0044,0.4776-0.0136
		c4.4111-0.2593,7.7763-4.045,7.5175-8.4541c-0.3925-6.6519-0.5703-12.7071-0.5683-18.2207
		c-0.0352-24.2198,3.4951-37.8238,6.9648-44.9234v150.003c0,6.83,5.5371,12.3632,12.3633,12.3632
		c6.8281,0,12.3652-5.5332,12.3652-12.3632v-90.2715h4.6348v90.2715c0,6.83,5.5371,12.3632,12.3633,12.3632
		c6.8281,0,12.3652-5.5332,12.3652-12.3632V74.8667c0.5918,1.2154,1.1895,2.6089,1.7783,4.2349
		c2.8194,7.8125,5.1905,20.6294,5.1797,40.6387c0.002,5.5136-0.1757,11.5732-0.5634,18.2241
		C428.1762,142.375,431.5444,146.1592,435.9565,146.416z M394.9927,74.7969c1.9335,0,3.5,1.5664,3.5,3.5s-1.5665,3.5-3.5,3.5
		c-1.9336,0-3.5-1.5664-3.5-3.5S393.0591,74.7969,394.9927,74.7969z M394.9927,92.7129c1.9335,0,3.5,1.5664,3.5,3.5
		c0,1.9331-1.5665,3.4995-3.5,3.4995c-1.9336,0-3.5-1.5664-3.5-3.4995C391.4927,94.2793,393.0591,92.7129,394.9927,92.7129z
		 M394.9927,117.6284c-1.9336,0-3.5-1.5664-3.5-3.5c0-1.9316,1.5664-3.5,3.5-3.5c1.9335,0,3.5,1.5684,3.5,3.5
		C398.4927,116.062,396.9262,117.6284,394.9927,117.6284z"/>
	<path d="M372.4927,22.5c0,0.1616,0.0087,0.3213,0.0117,0.4825C372.7622,35.1866,382.729,45,394.9927,45
		c12.4277,0,22.5-10.0722,22.5-22.5c0-6.6738-2.9082-12.666-7.5235-16.7866C405.9917,2.1616,400.7456,0,394.9927,0
		C382.5669,0,372.4927,10.0742,372.4927,22.5z"/>
	<path d="M143.2231,121.5679c15.9707,10.7773,45.3926,17.5713,79.2803,17.6367c24.833-0.0063,47.3184-3.7524,63.8086-9.9219
		c6.0078-2.2539,11.2139-4.8271,15.4775-7.7099c-1.3125-1.0454-2.3828-2.376-3.1279-3.8985
		c-14.4961,9.6133-43.2568,16.5957-76.1582,16.5303c-24.3193,0.0064-46.335-3.7099-62.0566-9.605
		c-5.5606-2.0786-10.3047-4.438-14.0909-6.9472C145.6108,119.1812,144.5405,120.5186,143.2231,121.5679z"/>
	<path d="M154.5044,226.0386h-5.334v-5.666h-8v-97.5078c-1.5098,0.7441-3.2031,1.1738-5,1.1738s-3.4902-0.4297-5-1.1738v97.5078h-8
		v5.666h-5.334v7.334h36.668V226.0386z"/>
	<path d="M136.1704,120.3716c5.6338,0,10.2949-4.1147,11.1728-9.5c0.0967-0.5986,0.1612-1.208,0.1612-1.8335
		c0-6.2593-5.0742-11.3335-11.334-11.3335s-11.334,5.0742-11.334,11.3335c0,0.6255,0.0645,1.2349,0.1611,1.8335
		C125.8755,116.2569,130.5366,120.3716,136.1704,120.3716z"/>
	<path d="M303.8364,122.8648v97.5078h-8v5.666h-5.334v7.334h36.668v-7.334h-5.334v-5.666h-8v-97.5078
		c-1.5098,0.7441-3.2031,1.1738-5,1.1738S305.3462,123.6089,303.8364,122.8648z"/>
	<path d="M308.8364,120.3716c5.6338,0,10.2949-4.1147,11.1729-9.5c0.0966-0.5986,0.1611-1.208,0.1611-1.8335
		c0-6.2593-5.0742-11.3335-11.334-11.3335s-11.334,5.0742-11.334,11.3335c0,0.6255,0.0645,1.2349,0.1612,1.8335
		C298.5415,116.2569,303.2026,120.3716,308.8364,120.3716z"/>
</g>
</svg>
