<?xml version="1.0" encoding="UTF-8" standalone="no"?> <svg width="512" height="512" viewBox="0 0 512 512" fill="none" xmlns="http://www.w3.org/2000/svg">
<path d="M280 384H232V400H280V384Z" fill="black"/>
<path d="M384 400V376C384 371.6 387.6 368 392 368V192C387.6 192 384 188.4 384 184V160H296V184C296 188.4 292.4 192 288 192V215.5C311.7 227.3 328 251.8 328 280C328 308.2 311.7 332.7 288 344.5V368C292.4 368 296 371.6 296 376V400H384Z" fill="black"/>
<path d="M248 256H240V272H248V256Z" fill="black"/>
<path d="M448 160H400V176H448V160Z" fill="black"/>
<path d="M256 352C250.5 352 245.1 351.4 240 350.2V368H272V350.2C266.9 351.4 261.5 352 256 352Z" fill="black"/>
<path d="M440 192H408V368H440V192Z" fill="black"/>
<path d="M256 32.7002L24 112H488L256 32.7002Z" fill="black"/>
<path d="M120 144H224H288H392H456H464V128H48V144H56H120Z" fill="black"/>
<path d="M272 288H264V304H272V288Z" fill="black"/>
<path d="M448 384H400V400H448V384Z" fill="black"/>
<path d="M464 416H456H392H288H224H120H56H48V432H464V416Z" fill="black"/>
<path d="M112 384H64V400H112V384Z" fill="black"/>
<path d="M256 208C261.5 208 266.9 208.6 272 209.8V192H240V209.8C245.1 208.6 250.5 208 256 208Z" fill="black"/>
<path d="M104 192H72V368H104V192Z" fill="black"/>
<path d="M112 160H64V176H112V160Z" fill="black"/>
<path d="M312 280C312 249.1 286.9 224 256 224C225.1 224 200 249.1 200 280C200 310.9 225.1 336 256 336C286.9 336 312 310.9 312 280ZM272 272C280.5 272 287.5 278.7 288 287.2C288 287.5 288 287.7 288 288V304C288 304.3 288 304.5 288 304.8C287.6 313.2 280.6 320 272 320H264C264 324.4 260.4 328 256 328C251.6 328 248 324.4 248 320H240C231.2 320 224 312.8 224 304C224 299.6 227.6 296 232 296C236.4 296 240 299.6 240 304H248V288H240C231.5 288 224.5 281.3 224 272.8C224 272.5 224 272.3 224 272V256C224 255.7 224 255.5 224 255.2C224.4 246.8 231.4 240 240 240H248C248 235.6 251.6 232 256 232C260.4 232 264 235.6 264 240H272C280.8 240 288 247.2 288 256C288 260.4 284.4 264 280 264C275.6 264 272 260.4 272 256H264V272H272Z" fill="black"/>
<path d="M280 160H232V176H280V160Z" fill="black"/>
<path d="M472 448H40H32V480H480V448H472Z" fill="black"/>
<path d="M216 400V376C216 371.6 219.6 368 224 368V344.5C200.3 332.7 184 308.2 184 280C184 251.8 200.3 227.3 224 215.5V192C219.6 192 216 188.4 216 184V160H128V184C128 188.4 124.4 192 120 192V368C124.4 368 128 371.6 128 376V400H216Z" fill="black"/>
</svg>
